<svg width="200" height="200" viewBox="0 0 200 200" xmlns="http://www.w3.org/2000/svg">
  <!-- Bar Chart / Building blocks of growth -->
  <rect x="40" y="100" width="18" height="40" rx="2" fill="#C5A021" />
  <rect x="65" y="80" width="18" height="60" rx="2" fill="#C5A021" />
  <rect x="90" y="60" width="18" height="80" rx="2" fill="#002D62" opacity="0.8" />
  
  <!-- The Path / Arrow -->
  <path d="M40 145 Q 80 145, 115 50" stroke="#C5A021" stroke-width="4" fill="none" stroke-linecap="round" />
  <path d="M115 50 L108 58 M115 50 L122 58" stroke="#C5A021" stroke-width="4" fill="none" stroke-linecap="round" />

  <!-- Graduation Cap (Campus) -->
  <path d="M25 80 L35 75 L45 80 L35 85 Z" fill="#002D62" />
  <path d="M28 81 V85 Q35 88, 42 85 V81" fill="#002D62" />
  <rect x="44" y="80" width="1" height="8" fill="#002D62" />

  <!-- Briefcase (Corporate) -->
  <rect x="105" y="35" width="30" height="22" rx="3" fill="#002D62" />
  <path d="M114 35 V32 Q120 28, 126 32 V35" stroke="#002D62" stroke-width="2" fill="none" />
  <rect x="118" y="44" width="4" height="2" fill="white" opacity="0.5" />
</svg>
